# xmcd
#
# Track frame offsets:
#	150
#	14140
#	38487
#	53409
#	83100
#	118237
#	158536
#	178709
#	199218
#	217656
#	234476
#	250451
#	275987
#
# Disc length: 3976 seconds
#
# Revision: 1
# Processed by: cddbd v1.5.2PL0 Copyright (c) Steve Scherf et al.
# Submitted via: EZCDAudioConverter 2.1.7.1
#
DISCID=b00f860d
DTITLE=Nina Simone - Remixed and Reimagined
DYEAR=2006
DGENRE=
TTITLE0=I Can't See Nobody [Daniel Y. Remix]
TTITLE1=Funkier Than A Mosquito's Tweeter [Jazzeem's All Styles Remix]
TTITLE2=Ain't Got No - I Got Life [Groovefinder Remix]
TTITLE3=Save Me [Coldcut Remix]
TTITLE4=Turn Me On [Tony Humphries Got U Turned On Dub]
TTITLE5=Here Comes The Sun [François K. Remix]
TTITLE6=Westwind [Organica Remix]
TTITLE7=Go To Hell [Mowo Remix]
TTITLE8=My Man's Gone Now [DJ Wally Remix]
TTITLE9=The Look Of Love [Madison Park vs. Lenny B Remix]
TTITLE10=O-o-h Child [Nickodemus Remix]
TTITLE11=To Love Somebody [Chris Coco's Stadium Rocker Remix]
TTITLE12=Obeah Woman [DJ Logic Remix]
EXTD=
EXTT0=
EXTT1=
EXTT2=
EXTT3=
EXTT4=
EXTT5=
EXTT6=
EXTT7=
EXTT8=
EXTT9=
EXTT10=
EXTT11=
EXTT12=
PLAYORDER=
